<?xml version="1.0" encoding="utf-8"?>
<svg viewBox="0 0 500 500" xmlns="http://www.w3.org/2000/svg">
  <g transform="matrix(1.338214, 0, 0, 1.338214, -104.42305, -166.197067)" style="">
    <path d="M 118.778 178.167 L 201.368 178.167 C 201.362 178.355 201.359 178.543 201.359 178.732 C 201.359 188.728 209.463 196.832 219.459 196.832 L 443.897 196.832 C 446.492 201.727 447.962 207.309 447.962 213.235 L 447.962 377.261 C 447.962 396.629 432.262 412.329 412.894 412.329 L 118.778 412.329 C 99.41 412.329 83.71 396.629 83.71 377.261 L 83.71 213.235 C 83.71 193.867 99.41 178.167 118.778 178.167 Z" style="fill: rgb(113, 201, 245);"/>
    <line style="stroke: rgb(0, 0, 0);" x1="106.39" y1="188.618" x2="198.976" y2="187.612"/>
    <line style="stroke: rgb(0, 0, 0);" x1="106.39" y1="202.204" x2="198.976" y2="201.198"/>
    <path d="M 420.361 403.843 L 112.789 403.843 C 108.07 403.843 104.19 400.252 103.734 395.653 L 429.416 395.653 C 428.96 400.252 425.08 403.843 420.361 403.843 Z" style="fill: rgb(113, 139, 245);"/>
  </g>
</svg>